# xmcd CD database file
#
# Track frame offsets:
#	150
#	20612
#	45025
#	62549
#	81386
#	109035
#	124600
#	148396
#	177269
#	205629
#
# Disc length: 3092 seconds
#
# Revision: 0
# Processed by: cddbd v1.5.2PL0 Copyright (c) Steve Scherf et al.
# Submitted via: CDex 1.70beta2
#
DISCID=810c120a
DTITLE=Jacques Schwarz-Bart - Rise Above
DYEAR=2009
DGENRE=Jazz
TTITLE0=Feel So Free
TTITLE1=Rise Above
TTITLE2=Forget Regret
TTITLE3=Busted
TTITLE4=Rainbow
TTITLE5=This One
TTITLE6=I Don't Know
TTITLE7=Abyss
TTITLE8=That Girl Steph
TTITLE9=Home
EXTD=YEAR: 2009
EXTT0=
EXTT1=
EXTT2=
EXTT3=
EXTT4=
EXTT5=
EXTT6=
EXTT7=
EXTT8=
EXTT9=
PLAYORDER=
